<?xml version="1.0" encoding="UTF-8" standalone="no"?>
<svg
   xmlns:osb="http://www.openswatchbook.org/uri/2009/osb"
   xmlns:dc="http://purl.org/dc/elements/1.1/"
   xmlns:cc="http://creativecommons.org/ns#"
   xmlns:rdf="http://www.w3.org/1999/02/22-rdf-syntax-ns#"
   xmlns:svg="http://www.w3.org/2000/svg"
   xmlns="http://www.w3.org/2000/svg"
   xmlns:sodipodi="http://sodipodi.sourceforge.net/DTD/sodipodi-0.dtd"
   xmlns:inkscape="http://www.inkscape.org/namespaces/inkscape"
   id="e4vknhyk86991"
   viewBox="0 0 512 512"
   shape-rendering="geometricPrecision"
   text-rendering="geometricPrecision"
   version="1.1"
   sodipodi:docname="fog.svg"
   inkscape:version="0.92.4 (5da689c313, 2019-01-14)">
  <metadata
     id="metadata15">
    <rdf:RDF>
      <cc:Work
         rdf:about="">
        <dc:format>image/svg+xml</dc:format>
        <dc:type
           rdf:resource="http://purl.org/dc/dcmitype/StillImage" />
      </cc:Work>
    </rdf:RDF>
  </metadata>
  <defs
     id="defs13">
    <linearGradient
       id="linearGradient828"
       osb:paint="solid">
      <stop
         style="stop-color:#000000;stop-opacity:1;"
         offset="0"
         id="stop826" />
    </linearGradient>
  </defs>
  <sodipodi:namedview
     pagecolor="#ffffff"
     bordercolor="#666666"
     borderopacity="1"
     objecttolerance="10"
     gridtolerance="10"
     guidetolerance="10"
     inkscape:pageopacity="0"
     inkscape:pageshadow="2"
     inkscape:window-width="1200"
     inkscape:window-height="846"
     id="namedview11"
     showgrid="false"
     inkscape:zoom="0.4609375"
     inkscape:cx="-124.74576"
     inkscape:cy="256"
     inkscape:window-x="704"
     inkscape:window-y="126"
     inkscape:window-maximized="0"
     inkscape:current-layer="e4vknhyk86991" />
  <style
     id="style2"><![CDATA[#e4vknhyk86994_to {animation: e4vknhyk86994_to__to 8000ms linear infinite normal forwards}@keyframes e4vknhyk86994_to__to { 0% {transform: translate(0px,0px)} 8.750000% {transform: translate(32px,0px)} 18.750000% {transform: translate(0px,0px)} 28.750000% {transform: translate(-32px,0px)} 37.500000% {transform: translate(0px,0px)} 46.250000% {transform: translate(32px,0px)} 56.250000% {transform: translate(0px,0px)} 66.250000% {transform: translate(-32px,0px)} 75% {transform: translate(0px,0px)} 100% {transform: translate(0px,0px)} }#e4vknhyk86995_to {animation: e4vknhyk86995_to__to 8000ms linear infinite normal forwards}@keyframes e4vknhyk86995_to__to { 0% {transform: translate(0px,-1.013862px)} 18.750000% {transform: translate(32px,-1.013862px)} 37.500000% {transform: translate(0px,-1.013862px)} 56.250000% {transform: translate(-32px,-1.013862px)} 75% {transform: translate(0px,-1.013862px)} 100% {transform: translate(0px,-1.013862px)} }]]></style>
  <path
     id="e4vknhyk86992"
     d="m 328.91526,234.29831 c -0.52502,0 -1.05004,0 -1.60788,0.0142 -7.64555,-32.86808 -40.90209,-56.85485 -80.42602,-56.85485 -32.82998,0 -62.29655,16.9243 -75.20868,42.64471 -31.02523,0.63946 -56.04556,22.69364 -56.04556,49.72138 0,27.42562 25.75864,49.73559 57.42373,49.73559 h 155.86441 c 27.13681,0 49.22033,-19.12688 49.22033,-42.63051 0,-23.50361 -22.08352,-42.6305 -49.22033,-42.6305 z"
     inkscape:connector-curvature="0"
     style="fill:#00a8ff;stroke:#ffffff;stroke-width:10;stroke-opacity:1;opacity:1;stroke-miterlimit:4;stroke-dasharray:none" />
  <g
     id="e4vknhyk86993"
     transform="matrix(0.55932202,0,0,0.42899786,104.37288,168.14618)">
    <g
       id="e4vknhyk86994_to">
      <path
         id="e4vknhyk86994"
         d="M 464,384 H 48 c -8.832,0 -16,7.168 -16,16 0,8.832 7.168,16 16,16 h 416 c 8.832,0 16,-7.168 16,-16 0,-8.832 -7.168,-16 -16,-16 z"
         inkscape:connector-curvature="0"
         style="fill:#607d8b;stroke:none;stroke-width:1" />
    </g>
    <g
       id="e4vknhyk86995_to"
       transform="translate(0,-1.013862)">
      <path
         id="e4vknhyk86995"
         d="M 464,448 H 48 c -8.832,0 -16,7.168 -16,16 0,8.832 7.168,16 16,16 h 416 c 8.832,0 16,-7.168 16,-16 0,-8.832 -7.168,-16 -16,-16 z"
         inkscape:connector-curvature="0"
         style="fill:#607d8b;stroke:none;stroke-width:1" />
    </g>
  </g>
</svg>
